<mxfile host="Electron" modified="2024-03-22T15:44:48.200Z" agent="Mozilla/5.0 (Windows NT 10.0; Win64; x64) AppleWebKit/537.36 (KHTML, like Gecko) draw.io/24.0.4 Chrome/120.0.6099.109 Electron/28.1.0 Safari/537.36" etag="Ib1ryTDTUFCju8jpXs-a" version="24.0.4" type="device">
  <diagram name="Pagina-1" id="9Hx1glb1ToDueiiUKnTw">
    <mxGraphModel dx="880" dy="532" grid="1" gridSize="10" guides="1" tooltips="1" connect="1" arrows="1" fold="1" page="1" pageScale="1" pageWidth="827" pageHeight="1169" math="0" shadow="0">
      <root>
        <mxCell id="0" />
        <mxCell id="1" parent="0" />
        <mxCell id="fZels1VW2LqqETpgGLc5-5" style="edgeStyle=orthogonalEdgeStyle;rounded=0;orthogonalLoop=1;jettySize=auto;html=1;endArrow=doubleBlock;endFill=1;" edge="1" parent="1" source="4bXNALxrbxy-ZR-reBOO-1" target="fZels1VW2LqqETpgGLc5-4">
          <mxGeometry relative="1" as="geometry" />
        </mxCell>
        <mxCell id="fZels1VW2LqqETpgGLc5-9" style="edgeStyle=orthogonalEdgeStyle;rounded=0;orthogonalLoop=1;jettySize=auto;html=1;entryX=1;entryY=0.5;entryDx=0;entryDy=0;endArrow=doubleBlock;endFill=1;" edge="1" parent="1" source="4bXNALxrbxy-ZR-reBOO-1" target="fZels1VW2LqqETpgGLc5-3">
          <mxGeometry relative="1" as="geometry" />
        </mxCell>
        <mxCell id="fZels1VW2LqqETpgGLc5-61" style="edgeStyle=orthogonalEdgeStyle;rounded=0;orthogonalLoop=1;jettySize=auto;html=1;entryX=0;entryY=0.5;entryDx=0;entryDy=0;" edge="1" parent="1" source="4bXNALxrbxy-ZR-reBOO-1" target="fZels1VW2LqqETpgGLc5-15">
          <mxGeometry relative="1" as="geometry" />
        </mxCell>
        <mxCell id="fZels1VW2LqqETpgGLc5-62" style="edgeStyle=orthogonalEdgeStyle;rounded=0;orthogonalLoop=1;jettySize=auto;html=1;entryX=0;entryY=0.5;entryDx=0;entryDy=0;" edge="1" parent="1" source="4bXNALxrbxy-ZR-reBOO-1" target="fZels1VW2LqqETpgGLc5-11">
          <mxGeometry relative="1" as="geometry" />
        </mxCell>
        <mxCell id="fZels1VW2LqqETpgGLc5-63" style="edgeStyle=orthogonalEdgeStyle;rounded=0;orthogonalLoop=1;jettySize=auto;html=1;entryX=0;entryY=0.5;entryDx=0;entryDy=0;" edge="1" parent="1" source="4bXNALxrbxy-ZR-reBOO-1" target="fZels1VW2LqqETpgGLc5-12">
          <mxGeometry relative="1" as="geometry" />
        </mxCell>
        <mxCell id="fZels1VW2LqqETpgGLc5-67" style="edgeStyle=orthogonalEdgeStyle;rounded=0;orthogonalLoop=1;jettySize=auto;html=1;entryX=0;entryY=0.5;entryDx=0;entryDy=0;" edge="1" parent="1" source="4bXNALxrbxy-ZR-reBOO-1" target="fZels1VW2LqqETpgGLc5-14">
          <mxGeometry relative="1" as="geometry">
            <Array as="points">
              <mxPoint x="540" y="470" />
            </Array>
          </mxGeometry>
        </mxCell>
        <mxCell id="fZels1VW2LqqETpgGLc5-68" style="edgeStyle=orthogonalEdgeStyle;rounded=0;orthogonalLoop=1;jettySize=auto;html=1;entryX=0;entryY=0.5;entryDx=0;entryDy=0;" edge="1" parent="1" source="4bXNALxrbxy-ZR-reBOO-1" target="fZels1VW2LqqETpgGLc5-13">
          <mxGeometry relative="1" as="geometry">
            <Array as="points">
              <mxPoint x="540" y="500" />
            </Array>
          </mxGeometry>
        </mxCell>
        <mxCell id="4bXNALxrbxy-ZR-reBOO-1" value="Evento" style="rounded=0;whiteSpace=wrap;html=1;" parent="1" vertex="1">
          <mxGeometry x="480" y="250" width="120" height="60" as="geometry" />
        </mxCell>
        <mxCell id="fZels1VW2LqqETpgGLc5-6" style="edgeStyle=orthogonalEdgeStyle;rounded=0;orthogonalLoop=1;jettySize=auto;html=1;" edge="1" parent="1" source="fZels1VW2LqqETpgGLc5-1" target="fZels1VW2LqqETpgGLc5-4">
          <mxGeometry relative="1" as="geometry" />
        </mxCell>
        <mxCell id="fZels1VW2LqqETpgGLc5-24" style="edgeStyle=orthogonalEdgeStyle;rounded=0;orthogonalLoop=1;jettySize=auto;html=1;entryX=0;entryY=0.5;entryDx=0;entryDy=0;" edge="1" parent="1" source="fZels1VW2LqqETpgGLc5-1" target="fZels1VW2LqqETpgGLc5-23">
          <mxGeometry relative="1" as="geometry" />
        </mxCell>
        <mxCell id="fZels1VW2LqqETpgGLc5-25" style="edgeStyle=orthogonalEdgeStyle;rounded=0;orthogonalLoop=1;jettySize=auto;html=1;entryX=0;entryY=0.5;entryDx=0;entryDy=0;" edge="1" parent="1" source="fZels1VW2LqqETpgGLc5-1" target="fZels1VW2LqqETpgGLc5-19">
          <mxGeometry relative="1" as="geometry" />
        </mxCell>
        <mxCell id="fZels1VW2LqqETpgGLc5-26" style="edgeStyle=orthogonalEdgeStyle;rounded=0;orthogonalLoop=1;jettySize=auto;html=1;entryX=0;entryY=0.5;entryDx=0;entryDy=0;" edge="1" parent="1" source="fZels1VW2LqqETpgGLc5-1" target="fZels1VW2LqqETpgGLc5-20">
          <mxGeometry relative="1" as="geometry" />
        </mxCell>
        <mxCell id="fZels1VW2LqqETpgGLc5-27" style="edgeStyle=orthogonalEdgeStyle;rounded=0;orthogonalLoop=1;jettySize=auto;html=1;entryX=0;entryY=0.5;entryDx=0;entryDy=0;" edge="1" parent="1" source="fZels1VW2LqqETpgGLc5-1" target="fZels1VW2LqqETpgGLc5-22">
          <mxGeometry relative="1" as="geometry" />
        </mxCell>
        <mxCell id="fZels1VW2LqqETpgGLc5-54" style="edgeStyle=orthogonalEdgeStyle;rounded=0;orthogonalLoop=1;jettySize=auto;html=1;entryX=0;entryY=0.5;entryDx=0;entryDy=0;" edge="1" parent="1" source="fZels1VW2LqqETpgGLc5-1" target="fZels1VW2LqqETpgGLc5-53">
          <mxGeometry relative="1" as="geometry" />
        </mxCell>
        <mxCell id="fZels1VW2LqqETpgGLc5-1" value="Risorsa" style="rounded=0;whiteSpace=wrap;html=1;" vertex="1" parent="1">
          <mxGeometry x="920" y="250" width="120" height="60" as="geometry" />
        </mxCell>
        <mxCell id="fZels1VW2LqqETpgGLc5-10" style="edgeStyle=orthogonalEdgeStyle;rounded=0;orthogonalLoop=1;jettySize=auto;html=1;entryX=0;entryY=0.5;entryDx=0;entryDy=0;" edge="1" parent="1" source="fZels1VW2LqqETpgGLc5-2" target="fZels1VW2LqqETpgGLc5-3">
          <mxGeometry relative="1" as="geometry" />
        </mxCell>
        <mxCell id="fZels1VW2LqqETpgGLc5-59" style="edgeStyle=orthogonalEdgeStyle;rounded=0;orthogonalLoop=1;jettySize=auto;html=1;entryX=0;entryY=0.5;entryDx=0;entryDy=0;" edge="1" parent="1" source="fZels1VW2LqqETpgGLc5-2" target="fZels1VW2LqqETpgGLc5-18">
          <mxGeometry relative="1" as="geometry" />
        </mxCell>
        <mxCell id="fZels1VW2LqqETpgGLc5-60" style="edgeStyle=orthogonalEdgeStyle;rounded=0;orthogonalLoop=1;jettySize=auto;html=1;entryX=0;entryY=0.5;entryDx=0;entryDy=0;" edge="1" parent="1" source="fZels1VW2LqqETpgGLc5-2" target="fZels1VW2LqqETpgGLc5-17">
          <mxGeometry relative="1" as="geometry" />
        </mxCell>
        <mxCell id="fZels1VW2LqqETpgGLc5-78" style="edgeStyle=orthogonalEdgeStyle;rounded=0;orthogonalLoop=1;jettySize=auto;html=1;entryX=0;entryY=0.5;entryDx=0;entryDy=0;" edge="1" parent="1" source="fZels1VW2LqqETpgGLc5-2" target="fZels1VW2LqqETpgGLc5-74">
          <mxGeometry relative="1" as="geometry">
            <Array as="points">
              <mxPoint x="100" y="420" />
            </Array>
          </mxGeometry>
        </mxCell>
        <mxCell id="fZels1VW2LqqETpgGLc5-2" value="Partecipante" style="rounded=0;whiteSpace=wrap;html=1;" vertex="1" parent="1">
          <mxGeometry x="40" y="250" width="120" height="60" as="geometry" />
        </mxCell>
        <mxCell id="fZels1VW2LqqETpgGLc5-3" value="Include" style="rhombus;whiteSpace=wrap;html=1;" vertex="1" parent="1">
          <mxGeometry x="280" y="240" width="80" height="80" as="geometry" />
        </mxCell>
        <mxCell id="fZels1VW2LqqETpgGLc5-4" value="Contiene" style="rhombus;whiteSpace=wrap;html=1;" vertex="1" parent="1">
          <mxGeometry x="720" y="240" width="80" height="80" as="geometry" />
        </mxCell>
        <mxCell id="fZels1VW2LqqETpgGLc5-11" value="" style="ellipse;whiteSpace=wrap;html=1;aspect=fixed;" vertex="1" parent="1">
          <mxGeometry x="580" y="370" width="20" height="20" as="geometry" />
        </mxCell>
        <mxCell id="fZels1VW2LqqETpgGLc5-12" value="" style="ellipse;whiteSpace=wrap;html=1;aspect=fixed;" vertex="1" parent="1">
          <mxGeometry x="580" y="400" width="20" height="20" as="geometry" />
        </mxCell>
        <mxCell id="fZels1VW2LqqETpgGLc5-13" value="" style="ellipse;whiteSpace=wrap;html=1;aspect=fixed;" vertex="1" parent="1">
          <mxGeometry x="620" y="490" width="20" height="20" as="geometry" />
        </mxCell>
        <mxCell id="fZels1VW2LqqETpgGLc5-14" value="" style="ellipse;whiteSpace=wrap;html=1;aspect=fixed;" vertex="1" parent="1">
          <mxGeometry x="620" y="460" width="20" height="20" as="geometry" />
        </mxCell>
        <mxCell id="fZels1VW2LqqETpgGLc5-15" value="" style="ellipse;whiteSpace=wrap;html=1;aspect=fixed;" vertex="1" parent="1">
          <mxGeometry x="580" y="340" width="20" height="20" as="geometry" />
        </mxCell>
        <mxCell id="fZels1VW2LqqETpgGLc5-17" value="" style="ellipse;whiteSpace=wrap;html=1;aspect=fixed;" vertex="1" parent="1">
          <mxGeometry x="140" y="370" width="20" height="20" as="geometry" />
        </mxCell>
        <mxCell id="fZels1VW2LqqETpgGLc5-18" value="" style="ellipse;whiteSpace=wrap;html=1;aspect=fixed;" vertex="1" parent="1">
          <mxGeometry x="140" y="340" width="20" height="20" as="geometry" />
        </mxCell>
        <mxCell id="fZels1VW2LqqETpgGLc5-19" value="" style="ellipse;whiteSpace=wrap;html=1;aspect=fixed;" vertex="1" parent="1">
          <mxGeometry x="1020" y="370" width="20" height="20" as="geometry" />
        </mxCell>
        <mxCell id="fZels1VW2LqqETpgGLc5-20" value="" style="ellipse;whiteSpace=wrap;html=1;aspect=fixed;" vertex="1" parent="1">
          <mxGeometry x="1020" y="400" width="20" height="20" as="geometry" />
        </mxCell>
        <mxCell id="fZels1VW2LqqETpgGLc5-22" value="" style="ellipse;whiteSpace=wrap;html=1;aspect=fixed;" vertex="1" parent="1">
          <mxGeometry x="1020" y="430" width="20" height="20" as="geometry" />
        </mxCell>
        <mxCell id="fZels1VW2LqqETpgGLc5-23" value="" style="ellipse;whiteSpace=wrap;html=1;aspect=fixed;" vertex="1" parent="1">
          <mxGeometry x="1020" y="340" width="20" height="20" as="geometry" />
        </mxCell>
        <mxCell id="fZels1VW2LqqETpgGLc5-38" value="" style="endArrow=none;html=1;rounded=0;" edge="1" parent="1">
          <mxGeometry width="50" height="50" relative="1" as="geometry">
            <mxPoint x="440" y="295" as="sourcePoint" />
            <mxPoint x="440" y="265" as="targetPoint" />
          </mxGeometry>
        </mxCell>
        <mxCell id="fZels1VW2LqqETpgGLc5-41" value="Nome" style="text;html=1;align=center;verticalAlign=middle;resizable=0;points=[];autosize=1;strokeColor=none;fillColor=none;" vertex="1" parent="1">
          <mxGeometry x="600" y="335" width="60" height="30" as="geometry" />
        </mxCell>
        <mxCell id="fZels1VW2LqqETpgGLc5-42" value="Descrizione" style="text;html=1;align=center;verticalAlign=middle;resizable=0;points=[];autosize=1;strokeColor=none;fillColor=none;" vertex="1" parent="1">
          <mxGeometry x="600" y="365" width="90" height="30" as="geometry" />
        </mxCell>
        <mxCell id="fZels1VW2LqqETpgGLc5-43" value="CapMax" style="text;html=1;align=center;verticalAlign=middle;resizable=0;points=[];autosize=1;strokeColor=none;fillColor=none;" vertex="1" parent="1">
          <mxGeometry x="600" y="395" width="70" height="30" as="geometry" />
        </mxCell>
        <mxCell id="fZels1VW2LqqETpgGLc5-46" value="Nome" style="text;html=1;align=center;verticalAlign=middle;resizable=0;points=[];autosize=1;strokeColor=none;fillColor=none;" vertex="1" parent="1">
          <mxGeometry x="160" y="335" width="60" height="30" as="geometry" />
        </mxCell>
        <mxCell id="fZels1VW2LqqETpgGLc5-47" value="Contatto" style="text;html=1;align=center;verticalAlign=middle;resizable=0;points=[];autosize=1;strokeColor=none;fillColor=none;" vertex="1" parent="1">
          <mxGeometry x="160" y="365" width="70" height="30" as="geometry" />
        </mxCell>
        <mxCell id="fZels1VW2LqqETpgGLc5-48" value="Attrezzatura" style="text;html=1;align=center;verticalAlign=middle;resizable=0;points=[];autosize=1;strokeColor=none;fillColor=none;" vertex="1" parent="1">
          <mxGeometry x="1040" y="335" width="90" height="30" as="geometry" />
        </mxCell>
        <mxCell id="fZels1VW2LqqETpgGLc5-49" value="Cibo" style="text;html=1;align=center;verticalAlign=middle;resizable=0;points=[];autosize=1;strokeColor=none;fillColor=none;" vertex="1" parent="1">
          <mxGeometry x="1040" y="365" width="50" height="30" as="geometry" />
        </mxCell>
        <mxCell id="fZels1VW2LqqETpgGLc5-52" value="Quantita" style="text;html=1;align=center;verticalAlign=middle;resizable=0;points=[];autosize=1;strokeColor=none;fillColor=none;" vertex="1" parent="1">
          <mxGeometry x="1040" y="395" width="70" height="30" as="geometry" />
        </mxCell>
        <mxCell id="fZels1VW2LqqETpgGLc5-53" value="" style="ellipse;whiteSpace=wrap;html=1;aspect=fixed;" vertex="1" parent="1">
          <mxGeometry x="1020" y="460" width="20" height="20" as="geometry" />
        </mxCell>
        <mxCell id="fZels1VW2LqqETpgGLc5-56" value="Costo" style="text;html=1;align=center;verticalAlign=middle;resizable=0;points=[];autosize=1;strokeColor=none;fillColor=none;" vertex="1" parent="1">
          <mxGeometry x="1040" y="425" width="50" height="30" as="geometry" />
        </mxCell>
        <mxCell id="fZels1VW2LqqETpgGLc5-58" value="Fornitore" style="text;html=1;align=center;verticalAlign=middle;resizable=0;points=[];autosize=1;strokeColor=none;fillColor=none;" vertex="1" parent="1">
          <mxGeometry x="1040" y="455" width="70" height="30" as="geometry" />
        </mxCell>
        <mxCell id="fZels1VW2LqqETpgGLc5-69" value="" style="ellipse;whiteSpace=wrap;html=1;aspect=fixed;fillColor=#000000;" vertex="1" parent="1">
          <mxGeometry x="580" y="520" width="20" height="20" as="geometry" />
        </mxCell>
        <mxCell id="fZels1VW2LqqETpgGLc5-71" value="" style="endArrow=none;html=1;rounded=0;" edge="1" parent="1">
          <mxGeometry width="50" height="50" relative="1" as="geometry">
            <mxPoint x="589.5" y="520" as="sourcePoint" />
            <mxPoint x="589.5" y="440" as="targetPoint" />
          </mxGeometry>
        </mxCell>
        <mxCell id="fZels1VW2LqqETpgGLc5-72" value="DataEvento" style="text;html=1;align=center;verticalAlign=middle;resizable=0;points=[];autosize=1;strokeColor=none;fillColor=none;" vertex="1" parent="1">
          <mxGeometry x="640" y="455" width="90" height="30" as="geometry" />
        </mxCell>
        <mxCell id="fZels1VW2LqqETpgGLc5-73" value="Luogo" style="text;html=1;align=center;verticalAlign=middle;resizable=0;points=[];autosize=1;strokeColor=none;fillColor=none;" vertex="1" parent="1">
          <mxGeometry x="640" y="485" width="60" height="30" as="geometry" />
        </mxCell>
        <mxCell id="fZels1VW2LqqETpgGLc5-74" value="" style="ellipse;whiteSpace=wrap;html=1;aspect=fixed;" vertex="1" parent="1">
          <mxGeometry x="270" y="410" width="20" height="20" as="geometry" />
        </mxCell>
        <mxCell id="fZels1VW2LqqETpgGLc5-76" value="CodiceBiglietto" style="text;html=1;align=center;verticalAlign=middle;resizable=0;points=[];autosize=1;strokeColor=none;fillColor=none;" vertex="1" parent="1">
          <mxGeometry x="290" y="405" width="100" height="30" as="geometry" />
        </mxCell>
        <mxCell id="fZels1VW2LqqETpgGLc5-79" value="" style="ellipse;whiteSpace=wrap;html=1;aspect=fixed;fillColor=#000000;" vertex="1" parent="1">
          <mxGeometry x="230" y="230" width="20" height="20" as="geometry" />
        </mxCell>
        <mxCell id="fZels1VW2LqqETpgGLc5-80" value="" style="endArrow=none;html=1;rounded=0;" edge="1" parent="1">
          <mxGeometry width="50" height="50" relative="1" as="geometry">
            <mxPoint x="240" y="440" as="sourcePoint" />
            <mxPoint x="239.5" y="250" as="targetPoint" />
          </mxGeometry>
        </mxCell>
        <mxCell id="fZels1VW2LqqETpgGLc5-81" value="" style="endArrow=none;html=1;rounded=0;" edge="1" parent="1">
          <mxGeometry width="50" height="50" relative="1" as="geometry">
            <mxPoint x="640" y="295" as="sourcePoint" />
            <mxPoint x="640" y="265" as="targetPoint" />
          </mxGeometry>
        </mxCell>
      </root>
    </mxGraphModel>
  </diagram>
</mxfile>
